<?xml version="1.0" standalone="no"?>
<!DOCTYPE svg PUBLIC "-//W3C//DTD SVG 20010904//EN"
 "http://www.w3.org/TR/2001/REC-SVG-20010904/DTD/svg10.dtd">
<svg version="1.0" xmlns="http://www.w3.org/2000/svg"
 width="700.000000pt" height="700.000000pt" viewBox="0 0 700.000000 700.000000"
 preserveAspectRatio="xMidYMid meet">
<metadata>
Created by potrace 1.11, written by Peter Selinger 2001-2013
</metadata>
<g transform="translate(0.000000,700.000000) scale(0.100000,-0.100000)"
fill="#000000" stroke="none">
<path d="M964 6181 c-76 -35 -152 -149 -185 -281 -21 -83 -18 -325 5 -425 98
-422 395 -657 589 -468 175 169 189 574 32 899 -54 111 -155 226 -237 267 -65
33 -142 36 -204 8z"/>
<path d="M2202 6170 c-135 -68 -256 -250 -313 -473 -101 -394 35 -771 272
-755 158 11 316 182 397 433 38 116 53 212 53 349 0 354 -186 557 -409 446z"/>
<path d="M188 5281 c-110 -36 -176 -143 -185 -301 -21 -345 261 -680 476 -565
204 108 197 526 -13 752 -88 95 -197 140 -278 114z"/>
<path d="M3059 5276 c-99 -35 -190 -127 -248 -250 -120 -251 -83 -524 84 -614
44 -24 139 -20 195 7 58 27 146 113 188 184 129 215 126 510 -8 630 -59 54
-137 70 -211 43z"/>
<path d="M1595 4560 c-184 -19 -374 -105 -538 -244 -69 -59 -194 -210 -249
-303 -128 -215 -181 -446 -158 -688 12 -133 22 -180 52 -240 70 -139 180 -160
478 -92 320 73 312 72 510 71 169 0 197 -3 325 -31 77 -18 185 -41 240 -54
135 -30 256 -31 310 -2 101 53 146 163 161 388 16 242 -57 496 -208 720 -62
94 -197 232 -288 297 -191 135 -421 200 -635 178z"/>
<path d="M3558 3271 c-82 -27 -146 -98 -191 -212 -70 -175 -59 -455 25 -669
58 -149 167 -289 270 -345 99 -55 212 -35 287 50 173 197 168 631 -11 939 -51
87 -146 184 -212 216 -54 25 -125 34 -168 21z"/>
<path d="M4809 3267 c-62 -23 -106 -56 -173 -128 -243 -263 -297 -812 -101
-1037 111 -127 266 -114 405 35 190 203 279 565 211 857 -47 198 -204 324
-342 273z"/>
<path d="M2715 2343 c-99 -52 -155 -169 -155 -325 0 -251 158 -506 340 -547
75 -17 136 2 191 59 62 63 90 138 96 255 16 283 -180 576 -383 575 -34 -1 -72
-8 -89 -17z"/>
<path d="M5601 2345 c-278 -121 -404 -630 -202 -821 68 -65 161 -76 254 -30
64 31 150 118 195 198 141 247 103 577 -75 654 -42 18 -129 17 -172 -1z"/>
<path d="M4095 1626 c-205 -40 -397 -147 -551 -308 -254 -265 -370 -588 -335
-934 20 -195 65 -289 160 -332 48 -22 62 -24 150 -19 57 3 158 19 251 40 417
97 560 96 985 -6 176 -42 318 -44 385 -7 90 51 138 179 147 395 11 263 -70
522 -231 739 -150 202 -374 361 -591 417 -102 26 -275 33 -370 15z"/>
</g>
</svg>
